<?xml version="1.0" encoding="utf-8"?>
<!-- Generator: Adobe Illustrator 19.0.0, SVG Export Plug-In . SVG Version: 6.00 Build 0)  -->
<svg version="1.1" id="Layer_1" xmlns="http://www.w3.org/2000/svg" xmlns:xlink="http://www.w3.org/1999/xlink" x="0px" y="0px"
	 viewBox="244 -443.6 1448.7 1447.6" style="enable-background:new 244 -443.6 1448.7 1447.6;" xml:space="preserve">
<style type="text/css">
	.st0{fill:none;stroke:#508381;stroke-miterlimit:10;}
</style>
<g id="XMLID_23_">
	<polygon id="XMLID_187_" class="st0" points="601.8,260.5 961.5,620.4 961.5,620.4 1321.6,260.3 961.9,-99.6 961.9,-99.6 	"/>
	<polygon id="XMLID_184_" class="st0" points="781.2,260.5 961.6,441 961.6,441 1142.2,260.4 961.8,79.9 961.8,79.9 	"/>
	<polygon id="XMLID_181_" class="st0" points="781.2,260.5 961.6,441 961.6,441 1142.2,260.4 961.8,79.9 961.8,79.9 	"/>
	<polygon id="XMLID_178_" class="st0" points="781.2,260.5 961.6,441 961.6,441 1142.2,260.4 961.8,79.9 961.8,79.9 	"/>
	<polygon id="XMLID_175_" class="st0" points="600.4,-100.6 600.3,621.4 600.3,621.5 1322.9,621.5 1323.1,-100.6 1323.1,-100.6 	"/>
	<polygon id="XMLID_172_" class="st0" points="780.8,79.7 780.8,441.2 780.8,441.2 1142.5,441.2 1142.6,79.7 1142.6,79.7 	"/>
	<polygon id="XMLID_169_" class="st0" points="871.6,260.5 961.6,350.5 961.6,350.5 1051.7,260.4 961.7,170.4 961.7,170.4 	"/>
	<polygon id="XMLID_166_" class="st0" points="871.5,170.3 871.4,350.6 871.4,350.6 1051.9,350.6 1051.9,170.3 1051.9,170.3 	"/>
	<polygon id="XMLID_163_" class="st0" points="916.9,260.5 961.7,305.3 961.7,305.3 1006.5,260.4 961.7,215.6 961.7,215.6 	"/>
	<polygon id="XMLID_160_" class="st0" points="916.8,215.6 916.8,305.3 916.8,305.3 1006.6,305.3 1006.6,215.6 1006.6,215.6 	"/>
	<polygon id="XMLID_157_" class="st0" points="938.8,260.4 961.7,283.3 961.7,283.3 984.5,260.4 961.7,237.6 961.7,237.6 	"/>
	<polygon id="XMLID_154_" class="st0" points="938.8,237.5 938.8,283.3 938.8,283.3 984.6,283.3 984.6,237.5 984.6,237.5 	"/>
	<polygon id="XMLID_151_" class="st0" points="950.2,260.4 961.7,271.9 961.7,271.9 973.1,260.4 961.7,249 961.7,249 	"/>
	<polygon id="XMLID_148_" class="st0" points="950.2,249 950.2,271.9 950.2,271.9 973.1,271.9 973.1,249 973.1,249 	"/>
	<polygon id="XMLID_132_" class="st0" points="956,260.4 961.7,266.1 961.7,266.1 967.4,260.4 961.7,254.7 961.7,254.7 	"/>
	<polygon id="XMLID_129_" class="st0" points="956,254.7 956,266.1 956,266.1 967.4,266.1 967.4,254.7 967.4,254.7 	"/>
	<polygon id="XMLID_124_" class="st0" points="958.7,260.4 961.7,263.4 961.7,263.4 964.7,260.4 961.7,257.4 961.7,257.4 	"/>
	<polygon id="XMLID_76_" class="st0" points="958.7,257.4 958.7,263.4 958.7,263.4 964.7,263.4 964.7,257.4 964.7,257.4 	"/>
	<polygon id="XMLID_26_" class="st0" points="238.8,260.6 961.3,983.5 961.3,983.5 1684.6,260.2 962.1,-462.6 962.1,-462.6 	"/>
</g>
</svg>
