<?xml version="1.0" encoding="utf-8"?>
<!-- Generator: Adobe Illustrator 19.0.0, SVG Export Plug-In . SVG Version: 6.00 Build 0)  -->
<svg version="1.1" id="Layer_1" xmlns="http://www.w3.org/2000/svg" xmlns:xlink="http://www.w3.org/1999/xlink" x="0px" y="0px"
	 viewBox="0 0 274.8 461.3" style="enable-background:new 0 0 274.8 461.3;" xml:space="preserve">
<style type="text/css">
	.st0{fill:#50A590;}
</style>
<g id="XMLID_26_">
	<path id="XMLID_173_" class="st0" d="M6.4,70.9l29.3-27.8c1.9-1.9,3.4-3.3,4.4-4.4c1-1.1,1.6-1.9,1.8-2.5V25.5
		c-0.6-1.1-1.6-2.1-3.1-2.9c-1.5-0.8-3.2-1.2-5.3-1.2c-2,0-3.7,0.4-5.2,1.2c-1.4,0.8-2.4,1.6-2.9,2.5v10.1H6.6v-17
		c0.6-0.8,1.5-1.9,2.9-3.2c1.3-1.3,3.1-2.7,5.3-4c2.2-1.3,4.9-2.4,8-3.4c3.1-1,6.7-1.5,10.8-1.5c4.1,0,7.8,0.5,11,1.5
		c3.2,1,6.1,2.3,8.5,3.8c2.4,1.5,4.3,3.1,5.9,4.9c1.5,1.8,2.7,3.4,3.4,4.9v19.8c-0.4,0.9-1.2,2.1-2.5,3.7c-1.3,1.6-3.1,3.4-5.5,5.6
		L33.5,68.9v0.9h29v16.2H6.4V70.9z"/>
	<path id="XMLID_175_" class="st0" d="M74.3,21c0.7-1.5,1.9-3.1,3.5-4.9c1.6-1.8,3.6-3.4,6.1-4.9c2.5-1.5,5.4-2.7,8.8-3.8
		c3.4-1,7.2-1.5,11.5-1.5c4.3,0,8.1,0.5,11.5,1.5c3.4,1,6.3,2.3,8.8,3.8c2.5,1.5,4.5,3.1,6.1,4.9c1.6,1.8,2.8,3.4,3.5,4.9v51.7
		c-0.7,1.5-1.9,3.1-3.5,4.9c-1.6,1.8-3.6,3.4-6.1,4.9c-2.5,1.5-5.4,2.7-8.8,3.8c-3.4,1-7.2,1.5-11.5,1.5c-4.3,0-8.1-0.5-11.5-1.5
		c-3.4-1-6.3-2.3-8.8-3.8c-2.5-1.5-4.5-3.1-6.1-4.9c-1.6-1.8-2.8-3.4-3.5-4.9V21z M94.8,51.3l17.6-27.4c-0.8-0.7-2-1.4-3.4-1.8
		c-1.5-0.5-3-0.7-4.8-0.7c-2.3,0-4.3,0.4-6,1.2c-1.7,0.8-2.8,1.8-3.4,2.9V51.3z M113.7,41.1L95.5,69.4c0.8,0.9,2,1.6,3.5,2.2
		c1.5,0.6,3.2,0.8,5.2,0.8c2.3,0,4.3-0.4,6-1.2c1.7-0.8,2.9-1.8,3.5-2.9V41.1z"/>
	<path id="XMLID_179_" class="st0" d="M148.1,72.7h16.8V24.1l-16.8,2V12.9l19.8-5.3h17.4v65.1h15.7v13.3h-52.9V72.7z"/>
	<path id="XMLID_181_" class="st0" d="M215.4,21c0.7-1.6,1.9-3.2,3.5-5c1.6-1.8,3.5-3.4,5.9-4.9c2.4-1.5,5.2-2.7,8.4-3.7
		c3.2-1,6.9-1.5,11-1.5c4.1,0,7.7,0.5,10.8,1.4c3.1,0.9,5.8,2.1,8,3.4c2.2,1.3,4,2.7,5.4,4.1c1.3,1.4,2.4,2.6,3,3.6v12.1h-18.8v-5.2
		c-0.5-1.1-1.6-2.1-3.1-3c-1.5-0.9-3.3-1.3-5.3-1.3c-2,0-3.8,0.4-5.3,1.3c-1.5,0.9-2.5,1.8-3,3v16.8c1.9-1.6,4.1-3,6.6-4
		c2.5-1,5.3-1.5,8.5-1.5c2.6,0,5,0.3,7.2,1c2.2,0.6,4.2,1.5,5.9,2.6c1.7,1.1,3.2,2.3,4.4,3.7c1.2,1.4,2.2,2.8,2.9,4.3v26.9
		c-0.6,0.9-1.6,2.1-2.9,3.5c-1.3,1.4-3.1,2.8-5.4,4.1c-2.2,1.3-4.9,2.5-8.1,3.5c-3.1,1-6.8,1.5-10.9,1.5c-4.1,0-7.8-0.5-11-1.5
		s-6.1-2.3-8.5-3.8c-2.4-1.5-4.4-3.1-5.9-4.9c-1.5-1.8-2.7-3.4-3.4-4.9V21z M235.9,68.2c0.5,1,1.5,2,3,2.9c1.5,0.9,3.2,1.3,5.3,1.3
		c2,0,3.8-0.4,5.3-1.3c1.5-0.9,2.6-1.8,3.1-2.9V54.8c-0.5-1-1.6-2-3.1-2.9c-1.5-0.9-3.4-1.3-5.5-1.3c-1.6,0-3,0.2-4.3,0.6
		c-1.3,0.4-2.5,1-3.8,1.8V68.2z"/>
	<path id="XMLID_184_" class="st0" d="M4.9,115.1c0.8-1.8,2-3.7,3.6-5.7c1.6-2,3.6-3.9,6-5.5c2.5-1.7,5.4-3.1,8.8-4.2
		c3.4-1.1,7.4-1.7,12-1.7c4.6,0,8.5,0.5,11.9,1.6c3.4,1.1,6.2,2.4,8.6,4c2.4,1.6,4.3,3.2,5.8,5c1.5,1.8,2.6,3.3,3.4,4.8V131H44.6
		v-12c-0.6-1.3-1.7-2.5-3.2-3.5c-1.6-1-3.5-1.5-5.9-1.5c-2.4,0-4.4,0.5-5.9,1.5c-1.5,1-2.6,2.2-3.3,3.6v39.6
		c0.6,1.3,1.7,2.5,3.2,3.5c1.6,1,3.5,1.5,5.9,1.5c2.4,0,4.4-0.5,5.9-1.5c1.6-1,2.6-2.2,3.2-3.5v-13.1H65v18.8
		c-0.7,1.4-1.8,3-3.3,4.8c-1.5,1.8-3.4,3.4-5.8,5c-2.4,1.6-5.3,2.9-8.6,4c-3.4,1.1-7.3,1.6-11.9,1.6c-4.6,0-8.6-0.6-12-1.7
		c-3.4-1.1-6.4-2.5-8.8-4.2c-2.5-1.7-4.5-3.5-6-5.5c-1.6-2-2.8-3.9-3.6-5.7V115.1z"/>
	<path id="XMLID_186_" class="st0" d="M73.7,115.1c0.8-1.8,2-3.7,3.6-5.7c1.6-2,3.6-3.9,6-5.5c2.5-1.7,5.4-3.1,8.8-4.2
		c3.4-1.1,7.4-1.7,12-1.7c4.6,0,8.5,0.6,12,1.7c3.4,1.1,6.4,2.5,8.8,4.2c2.5,1.7,4.5,3.5,6,5.5c1.6,2,2.8,3.9,3.6,5.7v47.5
		c-0.8,1.8-2,3.7-3.6,5.7c-1.6,2-3.6,3.9-6,5.5c-2.5,1.7-5.4,3.1-8.8,4.2c-3.4,1.1-7.4,1.7-12,1.7c-4.6,0-8.6-0.6-12-1.7
		c-3.4-1.1-6.4-2.5-8.8-4.2c-2.5-1.7-4.5-3.5-6-5.5c-1.6-2-2.8-3.9-3.6-5.7V115.1z M113.3,119c-0.6-1.3-1.7-2.5-3.2-3.5
		c-1.6-1-3.5-1.5-5.9-1.5c-2.4,0-4.4,0.5-5.9,1.5c-1.6,1-2.7,2.2-3.2,3.5v39.6c0.6,1.3,1.7,2.5,3.2,3.5c1.6,1,3.5,1.5,5.9,1.5
		c2.4,0,4.4-0.5,5.9-1.5c1.6-1,2.6-2.2,3.2-3.5V119z"/>
	<path id="XMLID_189_" class="st0" d="M146.3,99.7h30.8c3.6,0,6.8,0.5,9.6,1.4c2.8,0.9,5.3,2.1,7.4,3.6s3.9,3.1,5.4,4.9
		c1.5,1.8,2.6,3.7,3.4,5.5v47.5c-0.8,1.9-2,3.7-3.4,5.5c-1.5,1.8-3.2,3.5-5.4,4.9s-4.6,2.7-7.4,3.6c-2.8,0.9-6,1.4-9.6,1.4h-30.8
		V99.7z M172.6,162.5c2.4,0,4.3-0.5,5.9-1.4c1.5-0.9,2.6-2.1,3.2-3.4V120c-0.6-1.3-1.7-2.5-3.2-3.4c-1.5-0.9-3.5-1.4-5.9-1.4h-5
		v47.3H172.6z"/>
	<path id="XMLID_308_" class="st0" d="M217.8,99.7h51.4v15.6h-30.1v15.1h28.3v15.6h-28.3v16.6h30.8v15.6h-52.1V99.7z"/>
	<path id="XMLID_310_" class="st0" d="M6.9,191.7h33.7c5.1,0,9.7,1.2,13.9,3.5c4.2,2.3,7.5,5.6,10,9.9v24.1
		c-1.3,2.3-2.9,4.4-4.8,6.2s-4.1,3.3-6.6,4.5l12.2,18.9v11.4H48.5l-14.9-27.6h-5.4v27.6H6.9V191.7z M35.8,227.8
		c4.3,0,7.1-1.4,8.5-4.1v-12.2c-0.7-1.3-1.8-2.4-3.2-3.1c-1.5-0.7-3.2-1.1-5.3-1.1h-7.6v20.6H35.8z"/>
	<path id="XMLID_313_" class="st0" d="M79,191.7h51.4v15.6h-30.1v15.1h28.3v15.6h-28.3v16.6H131v15.6H79V191.7z"/>
	<path id="XMLID_315_" class="st0" d="M142.1,203.1v-11.4h20.6l10.6,54.4h2.1l11-54.4H205v11.4l-16.8,67H159L142.1,203.1z"/>
	<path id="XMLID_317_" class="st0" d="M212.6,207.1c0.8-1.8,2-3.7,3.6-5.7c1.6-2,3.6-3.9,6-5.5c2.5-1.7,5.4-3.1,8.8-4.2
		c3.4-1.1,7.4-1.7,12-1.7c4.6,0,8.5,0.6,12,1.7c3.4,1.1,6.4,2.5,8.8,4.2c2.5,1.7,4.5,3.5,6,5.5c1.6,2,2.8,3.9,3.6,5.7v47.5
		c-0.8,1.8-2,3.7-3.6,5.7c-1.6,2-3.6,3.9-6,5.5c-2.5,1.7-5.4,3.1-8.8,4.2c-3.4,1.1-7.4,1.7-12,1.7c-4.6,0-8.6-0.6-12-1.7
		c-3.4-1.1-6.4-2.5-8.8-4.2c-2.5-1.7-4.5-3.5-6-5.5c-1.6-2-2.8-3.9-3.6-5.7V207.1z M252.2,211c-0.6-1.3-1.7-2.5-3.2-3.5
		c-1.6-1-3.5-1.5-5.9-1.5c-2.4,0-4.4,0.5-5.9,1.5c-1.6,1-2.7,2.2-3.2,3.5v39.6c0.6,1.3,1.7,2.5,3.2,3.5c1.6,1,3.5,1.5,5.9,1.5
		c2.4,0,4.4-0.5,5.9-1.5c1.6-1,2.6-2.2,3.2-3.5V211z"/>
	<path id="XMLID_320_" class="st0" d="M10.5,283.7h21.3v62.8h30.8v15.6H10.5V283.7z"/>
	<path id="XMLID_322_" class="st0" d="M75.3,283.7h21.3v59.5c0.5,1.3,1.5,2.4,2.8,3.3c1.3,0.9,2.9,1.3,4.8,1.3
		c1.9,0,3.5-0.4,4.8-1.3c1.3-0.9,2.3-2,2.9-3.3v-59.5h21.3v65.1c-0.9,1.8-2.1,3.6-3.8,5.4c-1.6,1.8-3.6,3.4-6,4.8
		c-2.4,1.4-5.2,2.6-8.3,3.5c-3.2,0.9-6.8,1.3-10.8,1.3c-4,0-7.7-0.4-10.9-1.3c-3.2-0.9-6-2.1-8.3-3.5c-2.4-1.4-4.3-3-5.9-4.8
		c-1.6-1.8-2.9-3.6-3.8-5.4V283.7z"/>
	<path id="XMLID_324_" class="st0" d="M163,299.2h-19.8v-15.6H204v15.6h-19.7v62.8H163V299.2z"/>
	<path id="XMLID_326_" class="st0" d="M216.5,346.5h15.9v-47.3h-15.9v-15.6h53v15.6h-15.8v47.3h15.8v15.6h-53V346.5z"/>
	<path id="XMLID_328_" class="st0" d="M4.3,391.1c0.8-1.8,2-3.7,3.6-5.7c1.6-2,3.6-3.9,6-5.5c2.5-1.7,5.4-3.1,8.8-4.2
		c3.4-1.1,7.4-1.7,12-1.7c4.6,0,8.5,0.6,12,1.7c3.4,1.1,6.4,2.5,8.8,4.2c2.5,1.7,4.5,3.5,6,5.5c1.6,2,2.8,3.9,3.6,5.7v47.5
		c-0.8,1.8-2,3.7-3.6,5.7c-1.6,2-3.6,3.9-6,5.5c-2.5,1.7-5.4,3.1-8.8,4.2c-3.4,1.1-7.4,1.7-12,1.7c-4.6,0-8.6-0.6-12-1.7
		c-3.4-1.1-6.4-2.5-8.8-4.2c-2.5-1.7-4.5-3.5-6-5.5c-1.6-2-2.8-3.9-3.6-5.7V391.1z M43.9,395c-0.6-1.3-1.7-2.5-3.2-3.5
		c-1.6-1-3.5-1.5-5.9-1.5c-2.4,0-4.4,0.5-5.9,1.5c-1.6,1-2.7,2.2-3.2,3.5v39.6c0.6,1.3,1.7,2.5,3.2,3.5c1.6,1,3.5,1.5,5.9,1.5
		c2.4,0,4.4-0.5,5.9-1.5c1.6-1,2.6-2.2,3.2-3.5V395z"/>
	<path id="XMLID_331_" class="st0" d="M74.9,375.7H98l13.7,42.1h2v-42.1h19.7v78.4h-23.1l-13.7-42h-2v42H74.9V375.7z"/>
</g>
</svg>
