<?xml version="1.0" encoding="utf-8"?>
<!-- Generator: Adobe Illustrator 19.0.0, SVG Export Plug-In . SVG Version: 6.00 Build 0)  -->
<svg version="1.1" id="Layer_1" xmlns="http://www.w3.org/2000/svg" xmlns:xlink="http://www.w3.org/1999/xlink" x="0px" y="0px"
	 viewBox="-426 174 105.7 214" style="enable-background:new -426 174 105.7 214;" xml:space="preserve">
<style type="text/css">
	.st0{fill:#50D67D;}
	.st1{enable-background:new    ;}
	.st2{fill:#FEFEFE;}
</style>
<g id="XMLID_75_">
	<polygon class="st0" points="-327,174 -419.3,174 -426,180.7 -426,382 -420,388 -326.2,388 -320.2,381.9 -320.2,180.8 	"/>
</g>
<g id="XMLID_10_">
	<g id="XMLID_74_">
		<g id="XMLID_88_" class="st1">
			<path class="st2" d="M-400.1,220.1h9.5c1.5,0,2.8,0.3,4,1c1.2,0.7,2.2,1.6,2.9,2.8v7.3c-0.3,0.5-0.6,1-1.1,1.5
				c-0.4,0.5-0.9,0.9-1.5,1.2c-0.6,0.4-1.2,0.6-1.9,0.8c-0.7,0.2-1.5,0.3-2.4,0.3h-3.4v7.5h-6.1V220.1z M-392,230.5
				c0.6,0,1-0.1,1.5-0.3c0.4-0.2,0.7-0.5,0.9-0.9v-3.6c-0.2-0.4-0.6-0.7-1-0.9c-0.4-0.2-0.9-0.3-1.4-0.3h-2v6H-392z"/>
		</g>
	</g>
	<g id="XMLID_73_">
		<g id="XMLID_103_" class="st1">
			<path class="st2" d="M-380.5,220.1h9.6c1.5,0,2.8,0.3,4,1c1.2,0.7,2.1,1.6,2.8,2.8v6.9c-0.4,0.7-0.8,1.2-1.4,1.8
				c-0.5,0.5-1.2,0.9-1.9,1.3l3.5,5.4v3.3h-4.8l-4.3-7.9h-1.5v7.9h-6.1V220.1z M-372.3,230.4c1.2,0,2-0.4,2.4-1.2v-3.5
				c-0.2-0.4-0.5-0.7-0.9-0.9c-0.4-0.2-0.9-0.3-1.5-0.3h-2.2v5.9H-372.3z"/>
		</g>
	</g>
	<g id="XMLID_72_">
		<g id="XMLID_105_" class="st1">
			<path class="st2" d="M-362.8,224.3c0.2-0.5,0.6-1.1,1-1.6c0.4-0.6,1-1.1,1.7-1.6c0.7-0.5,1.5-0.9,2.5-1.2c1-0.3,2.1-0.5,3.4-0.5
				c1.3,0,2.4,0.2,3.4,0.5c1,0.3,1.8,0.7,2.5,1.2c0.7,0.5,1.3,1,1.7,1.6s0.8,1.1,1,1.6v13.6c-0.2,0.5-0.6,1.1-1,1.6s-1,1.1-1.7,1.6
				c-0.7,0.5-1.5,0.9-2.5,1.2s-2.1,0.5-3.4,0.5c-1.3,0-2.4-0.2-3.4-0.5c-1-0.3-1.8-0.7-2.5-1.2c-0.7-0.5-1.3-1-1.7-1.6
				c-0.4-0.6-0.8-1.1-1-1.6V224.3z M-351.5,225.4c-0.2-0.4-0.5-0.7-0.9-1c-0.4-0.3-1-0.4-1.7-0.4c-0.7,0-1.2,0.1-1.7,0.4
				s-0.8,0.6-0.9,1v11.3c0.2,0.4,0.5,0.7,0.9,1s1,0.4,1.7,0.4c0.7,0,1.2-0.1,1.7-0.4c0.4-0.3,0.8-0.6,0.9-1V225.4z"/>
		</g>
	</g>
	<g id="XMLID_71_">
		<g id="XMLID_107_" class="st1">
			<path class="st2" d="M-400.4,257.5c0.2-0.5,0.6-1.1,1-1.6c0.4-0.6,1-1.1,1.7-1.6c0.7-0.5,1.5-0.9,2.5-1.2c1-0.3,2.1-0.5,3.4-0.5
				c1.3,0,2.4,0.2,3.3,0.5c0.9,0.3,1.7,0.7,2.4,1.1c0.7,0.4,1.2,0.9,1.6,1.5c0.4,0.5,0.7,1,1,1.4v3.7h-5.8v-2.1
				c-0.2-0.4-0.5-0.7-0.9-1c-0.4-0.3-1-0.4-1.6-0.4c-0.7,0-1.2,0.1-1.6,0.4c-0.4,0.3-0.7,0.6-0.9,1v11.3c0.2,0.4,0.5,0.7,0.9,1
				c0.4,0.3,1,0.4,1.7,0.4c0.7,0,1.3-0.1,1.7-0.4c0.4-0.3,0.7-0.6,0.9-0.9v-2.9h-2.5v-4.3h8.2v8.6c-0.2,0.4-0.6,0.9-1,1.4
				c-0.4,0.5-0.9,1-1.6,1.4c-0.7,0.4-1.5,0.8-2.4,1.1c-0.9,0.3-2.1,0.5-3.3,0.5c-1.3,0-2.4-0.2-3.4-0.5s-1.8-0.7-2.5-1.2
				c-0.7-0.5-1.3-1-1.7-1.6c-0.4-0.6-0.8-1.1-1-1.6V257.5z"/>
		</g>
	</g>
	<g id="XMLID_70_">
		<g id="XMLID_109_" class="st1">
			<path class="st2" d="M-380.5,253.1h9.6c1.5,0,2.8,0.3,4,1c1.2,0.7,2.1,1.6,2.8,2.8v6.9c-0.4,0.7-0.8,1.2-1.4,1.8
				c-0.5,0.5-1.2,0.9-1.9,1.3l3.5,5.4v3.3h-4.8l-4.3-7.9h-1.5v7.9h-6.1V253.1z M-372.3,263.4c1.2,0,2-0.4,2.4-1.2v-3.5
				c-0.2-0.4-0.5-0.7-0.9-0.9c-0.4-0.2-0.9-0.3-1.5-0.3h-2.2v5.9H-372.3z"/>
		</g>
	</g>
	<g id="XMLID_69_">
		<g id="XMLID_110_" class="st1">
			<path class="st2" d="M-362.9,272l4.4-19.1h8.7l4.4,19.1v3.3h-5.5l-1-5.5h-5l-1.1,5.5h-4.9V272z M-356,265.4h3.4l-1.3-7.3h-0.6
				L-356,265.4z"/>
		</g>
	</g>
	<g id="XMLID_68_">
		<g id="XMLID_111_" class="st1">
			<path class="st2" d="M-400.8,284.2h7.3l1.3,6.6h0.4l1.2-6.6h7.1v22.4h-5.7v-13.5h-0.4l-1.5,6.5h-2.2l-1.5-6.5h-0.5v13.5h-5.6
				V284.2z"/>
		</g>
	</g>
	<g id="XMLID_67_">
		<g id="XMLID_112_" class="st1">
			<path class="st2" d="M-381.4,303.4l4.4-19.1h8.7l4.4,19.1v3.3h-5.5l-1-5.5h-5l-1.1,5.5h-4.9V303.4z M-374.5,296.7h3.4l-1.3-7.3
				h-0.6L-374.5,296.7z"/>
		</g>
	</g>
	<g id="XMLID_66_">
		<g id="XMLID_113_" class="st1">
			<path class="st2" d="M-357.1,311.8c0.4,0.1,0.7,0.1,1.1,0.2c0.4,0.1,0.7,0.1,1.1,0.1c0.4,0,0.8-0.1,1.1-0.2
				c0.3-0.1,0.5-0.2,0.6-0.4v-1c-0.1-0.2-0.3-0.3-0.5-0.4c-0.3-0.1-0.6-0.1-1-0.1h-1.9l0.9-3.2c-0.6-0.1-1.2-0.2-1.7-0.4
				c-1-0.3-1.8-0.7-2.5-1.2c-0.7-0.5-1.3-1-1.7-1.6s-0.8-1.1-1-1.6v-13.6c0.2-0.5,0.6-1.1,1-1.6s1-1.1,1.7-1.6
				c0.7-0.5,1.5-0.9,2.5-1.2c1-0.3,2.1-0.5,3.4-0.5c1.3,0,2.4,0.2,3.4,0.5c1,0.3,1.8,0.7,2.4,1.1c0.7,0.4,1.2,0.9,1.6,1.4
				c0.4,0.5,0.7,1,1,1.4v5.1h-5.8v-3.4c-0.2-0.4-0.5-0.7-0.9-1s-1-0.4-1.7-0.4s-1.2,0.1-1.7,0.4s-0.8,0.6-0.9,1v11.3
				c0.2,0.4,0.5,0.7,0.9,1c0.4,0.3,1,0.4,1.7,0.4s1.2-0.1,1.7-0.4s0.8-0.6,0.9-1v-3.7h5.8v5.4c-0.2,0.4-0.5,0.9-0.9,1.4
				s-1,1-1.6,1.4s-1.5,0.8-2.5,1.1c-0.8,0.3-1.7,0.4-2.7,0.4l-0.3,1.1h0.3c0.9,0,1.6,0.2,2,0.5c0.5,0.4,0.8,0.7,0.9,1.2v2.8
				c-0.3,0.6-0.8,1.1-1.6,1.5c-0.8,0.4-1.7,0.5-2.7,0.5c-0.7,0-1.4-0.1-2-0.2s-1-0.2-1.2-0.4L-357.1,311.8z"/>
		</g>
	</g>
	<g id="XMLID_65_">
		<g id="XMLID_114_" class="st1">
			<path class="st2" d="M-400.9,335.5l4.4-19.1h8.7l4.4,19.1v3.3h-5.5l-1-5.5h-5l-1.1,5.5h-4.9V335.5z M-398.8,312.6
				c0.1-0.4,0.2-0.7,0.4-1.1c0.2-0.3,0.5-0.6,0.8-0.9c0.3-0.3,0.7-0.5,1.2-0.6c0.5-0.2,1-0.2,1.5-0.2c0.7,0,1.3,0.1,1.7,0.3
				c0.4,0.2,0.8,0.4,1.1,0.6c0.3,0.2,0.6,0.4,0.9,0.6s0.6,0.3,0.9,0.3c0.6,0,1-0.3,1.1-0.8v-0.9h3.3v2.3c-0.1,0.4-0.2,0.7-0.4,1.1
				c-0.2,0.3-0.5,0.6-0.8,0.9s-0.7,0.5-1.2,0.6c-0.4,0.2-0.9,0.2-1.5,0.2c-0.7,0-1.3-0.1-1.7-0.3c-0.4-0.2-0.8-0.4-1.1-0.6
				c-0.3-0.2-0.6-0.4-0.9-0.6c-0.3-0.2-0.6-0.3-0.9-0.3c-0.3,0-0.6,0.1-0.8,0.2s-0.3,0.3-0.4,0.6v1h-3.3V312.6z M-394,328.9h3.4
				l-1.3-7.3h-0.6L-394,328.9z"/>
		</g>
	</g>
	<g id="XMLID_64_">
		<g id="XMLID_115_" class="st1">
			<path class="st2" d="M-381.3,320.8c0.2-0.5,0.6-1.1,1-1.6c0.4-0.6,1-1.1,1.7-1.6c0.7-0.5,1.5-0.9,2.5-1.2c1-0.3,2.1-0.5,3.4-0.5
				s2.4,0.2,3.4,0.5c1,0.3,1.8,0.7,2.5,1.2c0.7,0.5,1.3,1,1.7,1.6s0.8,1.1,1,1.6v13.6c-0.2,0.5-0.6,1.1-1,1.6s-1,1.1-1.7,1.6
				c-0.7,0.5-1.5,0.9-2.5,1.2s-2.1,0.5-3.4,0.5s-2.4-0.2-3.4-0.5c-1-0.3-1.8-0.7-2.5-1.2c-0.7-0.5-1.3-1-1.7-1.6
				c-0.4-0.6-0.8-1.1-1-1.6V320.8z M-370,321.9c-0.2-0.4-0.5-0.7-0.9-1c-0.4-0.3-1-0.4-1.7-0.4s-1.2,0.1-1.7,0.4
				c-0.4,0.3-0.8,0.6-0.9,1v11.3c0.2,0.4,0.5,0.7,0.9,1c0.4,0.3,1,0.4,1.7,0.4s1.2-0.1,1.7-0.4c0.4-0.3,0.8-0.6,0.9-1V321.9z"/>
		</g>
	</g>
</g>
</svg>
