<?xml version="1.0" encoding="UTF-8" standalone="no"?>
<!-- Created with Inkscape (http://www.inkscape.org/) -->

<svg
   xmlns:dc="http://purl.org/dc/elements/1.1/"
   xmlns:cc="http://creativecommons.org/ns#"
   xmlns:rdf="http://www.w3.org/1999/02/22-rdf-syntax-ns#"
   xmlns:svg="http://www.w3.org/2000/svg"
   xmlns="http://www.w3.org/2000/svg"
   xmlns:sodipodi="http://sodipodi.sourceforge.net/DTD/sodipodi-0.dtd"
   xmlns:inkscape="http://www.inkscape.org/namespaces/inkscape"
   id="svg4155"
   version="1.1"
   inkscape:version="0.91 r13725"
   xml:space="preserve"
   width="273.98029"
   height="105.71719"
   viewBox="0 0 273.98028 105.71719"
   sodipodi:docname="logo-7php.svg"><metadata
     id="metadata4161"><rdf:RDF><cc:Work
         rdf:about=""><dc:format>image/svg+xml</dc:format><dc:type
           rdf:resource="http://purl.org/dc/dcmitype/StillImage" /><dc:title></dc:title></cc:Work></rdf:RDF></metadata><defs
     id="defs4159"><clipPath
       clipPathUnits="userSpaceOnUse"
       id="clipPath4171"><path
         d="m 0,595.2756 841.8898,0 L 841.8898,0 0,0 0,595.2756 Z"
         id="path4173"
         inkscape:connector-curvature="0"
         style="clip-rule:evenodd" /></clipPath><clipPath
       clipPathUnits="userSpaceOnUse"
       id="clipPath4209"><path
         d="m 95.2311,500.1585 75.1552,0 4.4104,-4.4104 0,-75.1553 -4.4104,-4.4104 -75.1552,0 -4.4105,4.4104 0,75.1553 4.4105,4.4104 z"
         id="path4211"
         inkscape:connector-curvature="0"
         style="clip-rule:evenodd" /></clipPath></defs><sodipodi:namedview
     pagecolor="#ffffff"
     bordercolor="#666666"
     borderopacity="1"
     objecttolerance="10"
     gridtolerance="10"
     guidetolerance="10"
     inkscape:pageopacity="0"
     inkscape:pageshadow="2"
     inkscape:window-width="1210"
     inkscape:window-height="612"
     id="namedview4157"
     showgrid="false"
     fit-margin-top="0"
     fit-margin-left="0"
     fit-margin-right="0"
     fit-margin-bottom="0"
     inkscape:zoom="1.3035979"
     inkscape:cx="182.7928"
     inkscape:cy="65.756187"
     inkscape:window-x="0"
     inkscape:window-y="0"
     inkscape:window-maximized="0"
     inkscape:current-layer="text4195" /><g
     id="g4163"
     inkscape:groupmode="layer"
     inkscape:label="7php"
     transform="matrix(1.25,0,0,-1.25,-373.89074,452.40649)"><g
       id="text4195"
       style="font-variant:normal;font-weight:normal;font-size:55.16199875px;font-family:Shumi;-inkscape-font-specification:Shumi;writing-mode:lr-tb;fill:#51a8b1;fill-opacity:1;fill-rule:nonzero;stroke:none"
       transform="matrix(1,0,0,-1,384.77869,318.29119)"><path
         inkscape:connector-curvature="0"
         id="path4331"
         d="m 32.24068,-24.564328 -4.417269,-4.390334 -12.443772,0 0,-3.043607 16.861041,0 0,-11.635734 -26.2881401,0 -4.4172694,4.41727 0,17.453601 4.4172694,4.417269 12.4707061,0 0,3.070541 -16.8879755,0 0,11.581865 26.2881405,0 4.417269,-4.4172694 0,-17.4536016 z" /><path
         inkscape:connector-curvature="0"
         id="path4333"
         d="m 65.999824,-14.329191 0,11.635734 -30.70541,0 0,-40.940546 30.70541,0 0,11.6088 -13.871304,0 -3.043606,3.043606 13.871303,0 0,11.6088 -13.871303,0 0,3.043606 16.91491,0 z" /><path
         inkscape:connector-curvature="0"
         id="path4335"
         d="m 69.053558,-43.634003 0,11.635734 8.43052,0 0,29.304812 13.844369,0 0,-29.304812 8.430521,0 0,-11.635734 -30.70541,0 z" /><path
         inkscape:connector-curvature="0"
         id="path4337"
         d="m 133.51812,-14.329191 0,11.635734 -30.70541,0 0,-40.940546 30.70541,0 0,11.6088 -13.8713,0 -3.04361,3.043606 13.87131,0 0,11.6088 -13.87131,0 0,3.043606 16.91491,0 z" /></g><g
       id="text4199"
       style="font-variant:normal;font-weight:normal;font-size:55.16199875px;font-family:Shumi;-inkscape-font-specification:Shumi;writing-mode:lr-tb;fill:#FFFFFF;fill-opacity:1;fill-rule:nonzero;stroke:none"
       transform="matrix(1,0,0,-1,384.77869,274.65799)"><path
         inkscape:connector-curvature="0"
         id="path4340"
         d="m 1.5352705,-43.634003 0,40.940546 13.8443685,0 0,-14.652406 12.470706,0 4.390335,-4.417269 0,-17.480536 -4.390335,-4.390335 -26.3150745,0 z m 16.8879755,14.679341 -3.043607,3.043606 0,-6.087213 3.043607,0 0,3.043607 z" /><path
         inkscape:connector-curvature="0"
         id="path4342"
         d="m 52.18239,-43.634003 0,14.679341 -3.070541,0 0,-14.679341 -13.817435,0 0,40.940546 13.817435,0 0,-14.652406 3.070541,0 0,14.652406 13.817434,0 0,-40.940546 -13.817434,0 z" /><path
         inkscape:connector-curvature="0"
         id="path4344"
         d="m 69.053558,-43.634003 0,40.940546 13.844369,0 0,-14.652406 12.470706,0 4.390335,-4.417269 0,-17.480536 -4.390335,-4.390335 -26.315075,0 z m 16.887975,14.679341 -3.043606,3.043606 0,-6.087213 3.043606,0 0,3.043607 z" /></g><path
       inkscape:connector-curvature="0"
       id="path4203"
       style="fill:#57a695;fill-opacity:1;fill-rule:evenodd;stroke:none"
       d="m 303.52309,361.88659 75.1552,0 4.4104,-4.4104 0,-75.1553 -4.4104,-4.4104 -75.1552,0 -4.4105,4.4104 0,75.1553 4.4105,4.4104 z" /><g
       id="g4205"
       transform="translate(208.29199,-138.27191)"><g
         clip-path="url(#clipPath4209)"
         id="g4207"><g
           id="g4213"><path
             inkscape:connector-curvature="0"
             id="path4215"
             style="fill:#fefefe;fill-opacity:1;fill-rule:evenodd;stroke:none"
             d="m 153.8025,437.1769 20.9934,0 20.9936,-20.9937 0,-20.9936 -20.9936,0 -20.9934,20.9936 0,20.9937 z m 20.9934,0 20.9936,0 0,-20.9937 -20.9936,-20.9936 -20.9934,0 0,20.9936 20.9934,20.9937 z" /><path
             inkscape:connector-curvature="0"
             id="path4217"
             style="fill:#fefefe;fill-opacity:1;fill-rule:evenodd;stroke:none"
             d="m 69.8278,437.1769 20.9937,0 20.9936,-20.9937 0,-20.9936 -20.9936,0 -20.9937,20.9936 0,20.9937 z m 20.9937,0 20.9936,0 0,-20.9937 -20.9936,-20.9936 -20.9937,0 0,20.9936 20.9937,20.9937 z" /><path
             inkscape:connector-curvature="0"
             id="path4219"
             style="fill:#fefefe;fill-opacity:1;fill-rule:evenodd;stroke:none"
             d="m 69.8278,521.1513 20.9937,0 20.9936,-20.9937 0,-20.9936 -20.9936,0 -20.9937,20.9936 0,20.9937 z m 20.9937,0 20.9936,0 0,-20.9937 -20.9936,-20.9936 -20.9937,0 0,20.9936 20.9937,20.9937 z" /><path
             inkscape:connector-curvature="0"
             id="path4221"
             style="fill:#fefefe;fill-opacity:1;fill-rule:evenodd;stroke:none"
             d="m 153.8025,521.1513 20.9934,0 20.9936,-20.9937 0,-20.9936 -20.9936,0 -20.9934,20.9936 0,20.9937 z m 20.9934,0 20.9936,0 0,-20.9937 -20.9936,-20.9936 -20.9934,0 0,20.9936 20.9934,20.9937 z" /><path
             inkscape:connector-curvature="0"
             id="path4223"
             style="fill:#fefefe;fill-opacity:1;fill-rule:evenodd;stroke:none"
             d="m 132.8088,500.1579 41.9874,-41.9873 -41.9874,-41.9876 -41.9876,41.9876 41.9876,41.9873 z m -20.9937,-20.9939 41.9874,0 0,-41.9871 -41.9874,0 0,41.9871 z" /><path
             inkscape:connector-curvature="0"
             id="path4225"
             style="fill:#fefefe;fill-opacity:1;fill-rule:evenodd;stroke:none"
             d="m 132.8088,479.164 20.9937,-20.9934 -20.9937,-20.9937 -20.9937,20.9937 20.9937,20.9934 z m -10.497,-10.4967 20.9937,0 0,-20.9937 -20.9937,0 0,20.9937 z" /></g></g></g></g></svg>