<?xml version="1.0" encoding="utf-8"?>
<!-- Generator: Adobe Illustrator 19.0.0, SVG Export Plug-In . SVG Version: 6.00 Build 0)  -->
<svg version="1.1" id="Camada_1" xmlns="http://www.w3.org/2000/svg" xmlns:xlink="http://www.w3.org/1999/xlink" x="0px" y="0px"
	 viewBox="0 0 551 312" style="enable-background:new 0 0 551 312;" xml:space="preserve">
<style type="text/css">
	.st0{fill:#FFFFFF;}
</style>
<g id="XMLID_3_">
	<path id="XMLID_36_" class="st0" d="M503,164.9c-1,5.6-1.9,11.2-3,16.7c-1.7,8.5-4.6,16.6-8.1,24.4c-1,2.2-1.6,2.3-3.7,1.1
		c-23.4-14.2-52.1,0.7-53.9,28c-0.6,8.9,2.4,16.9,8,24.1c-6.4,3.8-13.1,6.5-20,8.9c-2.6,0.9-2.2-1.1-2.5-2.4
		c-5.4-21.1-27.6-32.5-47.6-24.2c-10.7,4.5-17.6,12.5-20.5,23.7c-0.8,3-1.7,3.4-4.4,2.4c-5.7-2.3-11.3-4.6-16.8-7.4
		c-2-1-2.7-1.7-1.2-4.1c14-22.1,1.9-49.5-23.9-54.1c-7.9-1.4-15.5,0-22.4,4.1c-2.7,1.6-3.4,0.8-4.4-1.6
		c-13.3-31.1-13.6-62.2-0.8-93.5c0.9-2.2,1.4-3.4,4.3-1.7c14.3,8.5,32.5,5.8,43.5-6.1c11.5-12.5,12.8-30.6,2.8-44.4
		c-1.8-2.5-1.7-3.5,1-4.8c6.8-3.4,13.6-6.7,21.1-8.8c0.3,1.1,0.7,2.2,0.9,3.3c3.9,15.8,17.6,26.6,33.8,26.7
		c16.3,0.1,30.5-10.6,34.3-26.4c0.8-3.4,2-3.5,4.7-2.4c5.6,2.1,11.1,4.6,16.4,7.2c2.5,1.2,2.5,2.1,0.9,4.3
		c-14.9,19.9-6.2,47.7,17.3,55c10.5,3.2,20.5,1.9,29.7-4.2c2.3-1.6,3.1-1.3,4.2,1.2c5.2,12.2,8.4,24.8,9.5,37.9
		c0.1,0.8-0.3,1.8,0.7,2.3C503,154.9,503,159.9,503,164.9z M458.2,154.1c8.5-4.9,11.3-10.8,8.5-17.8c-2.6-6.4-8.3-8.6-14.6-9.6
		c-8-1.3-15.9-0.4-23.9,0.1c-2.6,0.2-3.2,1.4-3.1,3.8c0.1,15.9,0.1,31.7,0.1,47.6c0,8.1,0,8.2,8,8.8c8,0.6,16,0.4,23.8-2
		c6.4-2,11-5.9,12.4-12.8C471,164,467.7,158.7,458.2,154.1z M301.4,156.7c0,9,0.1,18,0,27c0,2.2,0.5,3.2,2.9,3c2.5-0.2,5-0.2,7.5,0
		c2.8,0.3,3.3-0.9,3.2-3.4c-0.2-6.2,0.1-12.5-0.1-18.7c-0.1-2.5,0.8-3.2,3.2-3.2c5.5,0.1,11,0.1,16.5,0c2.1,0,2.9,0.5,2.8,2.7
		c-0.2,4.1-0.1,8.2,0,12.4c0,3.2-1.1,7.5,0.6,9.4c1.9,2.2,6.3,0.4,9.6,0.8c3.1,0.4,3.4-1.1,3.4-3.6c-0.1-15.4,0-30.7-0.1-46.1
		c0-3.3,1.5-7.8-0.6-9.7c-2.3-2-6.7-0.4-10.1-0.7c-2.1-0.2-2.8,0.5-2.8,2.7c0.1,5.9,0,11.7,0.1,17.6c0,2-0.5,2.9-2.7,2.8
		c-5.6-0.1-11.2-0.1-16.9,0c-2.4,0.1-3-0.8-2.9-3.1c0.2-3.2,0.1-6.5,0-9.7c-0.1-3.3,1.5-7.7-0.7-9.7c-2.1-2-6.4-0.3-9.8-0.7
		c-2.5-0.2-3.2,0.7-3.1,3.1C301.5,138.7,301.4,147.7,301.4,156.7z M412.5,148.5c0-4.8,0.1-8.5,0-12.1c-0.1-3.2,1.4-7.4-0.7-9.3
		c-1.9-1.6-6-0.4-9-0.6c-2.9-0.3-3.9,0.6-3.8,3.6c0.2,10.2,0.1,20.5,0.1,30.7c0,2.9-0.1,5.8-1.1,8.5c-1.5,4.7-5.1,7.3-9.8,7.3
		c-4.6,0-7.9-2.4-9.6-7c-1-2.7-1.4-5.6-1.4-8.5c0-8.1,0-16.2,0-24.4c0-11,0-11-11.2-10.4c-1.7,0.1-2.4,0.5-2.4,2.3
		c0.1,11.7-0.2,23.5,0.2,35.2c0.5,12.1,6.2,19.8,15.4,22.4c3.7,1,7.4,1.1,11.2,0.9c11.3-0.5,19-7.1,21.3-18.1
		C413.2,162.1,412.1,154.7,412.5,148.5z"/>
	<path id="XMLID_35_" class="st0" d="M380.8,296.9c-0.6-1.2-1.9-1-2.9-1.4c-11.2-4.2-17.4-15.7-14.5-27.1c2.9-11.7,14-19,25.8-17.2
		c11.3,1.7,19.7,12,19.3,23.6c-0.4,9.9-7.2,18.3-17.2,21.2c-0.6,0.2-1.3,0-1.5,0.8C386.8,296.9,383.8,296.9,380.8,296.9z"/>
	<path id="XMLID_34_" class="st0" d="M30.5,182.9c1.6-1.3,0.7-4.6,2.6-4.9c1.6-0.3,3.6,1.4,5.5,1.9c4,1.2,8,1.8,12.2,0.8
		c4.2-1,7.3-3.4,8.1-7.8c0.8-4.5-0.7-8.2-4.7-10.6c-2.1-1.3-4.4-2.3-6.7-3.3c-2.7-1.1-5.3-2.2-7.7-3.8c-5.6-3.6-8.7-8.6-7.7-15.5
		c0.9-6.6,5.1-10.8,11.2-12.8c6.2-2.1,12.5-1.5,18.8,0.4c3.8,1.2,1.4,3.4,1.1,5.4c-0.4,2.5-1.8,1.6-3.2,1c-4.2-1.6-8.4-2.3-12.8-1.2
		c-3.7,0.9-6.3,3-7.1,6.9c-0.8,3.8,0.6,6.8,3.7,9.1c2,1.5,4.3,2.5,6.6,3.5c2.3,1,4.6,1.9,6.8,3.1c7.4,4,10.6,9.7,9.6,17
		c-1,7.6-5.4,12.7-13.5,14.6c-7.9,1.9-15.6,1-22.8-3.1C30.5,183.4,30.5,183.2,30.5,182.9z"/>
	<path id="XMLID_33_" class="st0" d="M30.5,202.4c2.5-3.1,5.3-5.6,9.7-4.8c0.8,0.2,2.4-0.3,2.1,1.3c-0.2,1.3-1.4,0.5-2.2,0.4
		c-5.3-0.1-8.1,2.8-7.3,7.8c0.6,3.5,2.8,5,7.1,5c0.8,0,2.3-1.1,2.4,0.6c0.1,1.4-1.5,1-2.3,1.2c-4.4,0.9-7.3-1.4-9.5-4.8
		C30.5,206.9,30.5,204.7,30.5,202.4z"/>
	<path id="XMLID_32_" class="st0" d="M385.4,62.9c-12.7,0-22.7-10.2-22.7-22.9c0-12.8,10.3-23,23.2-22.9
		c12.5,0.1,22.7,10.5,22.6,23.1C408.4,52.8,398.1,63,385.4,62.9z"/>
	<path id="XMLID_31_" class="st0" d="M300.1,259.6c-12.8,0-22.9-9.9-22.9-22.6c-0.1-12.9,10.2-23.2,22.9-23.2
		c12.5,0,22.9,10.4,22.9,23C323,249.4,312.8,259.5,300.1,259.6z"/>
	<path id="XMLID_30_" class="st0" d="M469.4,259.6c-12.8,0-22.8-10-22.9-22.7c0-12.8,10.2-23.2,23-23.1c12.5,0.1,22.8,10.5,22.8,23
		C492.3,249.4,482.1,259.6,469.4,259.6z"/>
	<path id="XMLID_29_" class="st0" d="M299.9,102c-12.8,0-22.8-10-22.9-22.7c-0.1-12.9,10.2-23.2,23-23.1c12.5,0.1,22.8,10.5,22.8,23
		C322.9,91.8,312.6,102,299.9,102z"/>
	<path id="XMLID_28_" class="st0" d="M469,102c-12.6-0.1-22.6-10.3-22.5-23.1c0.1-12.7,10.3-22.8,23-22.7
		c12.5,0.1,22.9,10.5,22.9,23C492.3,91.9,481.9,102.1,469,102z"/>
	<path id="XMLID_25_" class="st0" d="M163.1,186.4c-8,0.8-8,0.8-10.4-6.4c-1.1-3.3-2.4-6.6-3.4-9.9c-0.5-1.8-1.4-2.3-3.2-2.3
		c-5.5,0.1-11,0.1-16.5,0c-2.1-0.1-2.8,0.8-3.3,2.6c-1.2,4.1-2.9,8-3.9,12.1c-0.8,3.4-2.5,4.8-5.9,4.2c-1-0.2-2,0-3.5,0
		c1-3.1,2-5.8,2.9-8.6c5.5-16.3,11.1-32.5,16.6-48.8c0.7-2.2,2-3.1,4-2.6c2.4,0.6,5.6-1.9,7,2.1C150,147.9,156.5,167,163.1,186.4z
		 M137.9,134.7c-2.5,8.6-5.7,16.9-8.4,25.4c-0.4,1.2,0,1.8,1.4,1.8c5.2,0,10.4,0,16,0C144.1,152.5,140.4,143.8,137.9,134.7z"/>
	<path id="XMLID_24_" class="st0" d="M239.3,186.7c-4.7,0-9.5,0-14.2,0c-1.7,0-2.7-0.2-2.7-2.4c0.1-18.5,0.1-37,0-55.5
		c0-1.9,0.7-2.3,2.4-2.3c9.2,0.1,18.5,0.1,27.7,0c3-0.1,2.2,1.8,2.3,3.4c0.1,1.8,0.2,3.4-2.6,3.3c-6.4-0.2-12.7,0.1-19.1-0.1
		c-2.6-0.1-3.2,0.8-3.1,3.2c0.2,4.2,0.2,8.5,0,12.7c-0.1,2.6,0.8,3.1,3.2,3c5.9-0.2,11.7,0.1,17.6-0.1c2.9-0.1,2.5,1.5,2.5,3.3
		c0,1.8,0.2,3.4-2.6,3.3c-6-0.2-12,0-18-0.1c-2.1,0-2.8,0.6-2.8,2.8c0.1,5.4,0.1,10.7,0,16.1c-0.1,2.2,0.8,2.7,2.8,2.7
		c6.7-0.1,13.5,0.1,20.2-0.1c2.9-0.1,3.1,1.2,3.2,3.6c0.1,2.5-0.7,3.2-3.1,3.1C248.5,186.6,243.9,186.7,239.3,186.7z"/>
	<path id="XMLID_21_" class="st0" d="M77.7,156.8c0-8.9,0-17.7,0-26.6c0-1.6,0-2.9,2.1-3.1c7.5-0.7,14.9-1.6,22.3,0.4
		c6.9,1.9,11.2,6.4,12.3,13.5c1.3,7.9-1.9,14.9-8.2,18.7c-5.6,3.3-11.8,4.2-18.1,3.4c-2.6-0.3-2.8,0.5-2.8,2.6
		c0.1,6.1-0.1,12.2,0.1,18.3c0.1,3.5-2.1,2.7-3.9,2.6c-1.8,0-4,0.9-3.9-2.6C77.8,175,77.7,165.9,77.7,156.8z M91.8,132.6
		C91.8,132.6,91.8,132.6,91.8,132.6c-0.7,0-1.5,0-2.2,0c-3.4-0.4-4.6,1-4.3,4.5c0.3,3.6,0.1,7.2,0.1,10.8c0,9.7,0.7,10.3,10.5,8.8
		c6.9-1.1,11.3-6.1,11-12.9c-0.2-6.5-4.6-10.6-11.7-11.2C94.1,132.5,93,132.6,91.8,132.6z"/>
	<path id="XMLID_20_" class="st0" d="M197.7,187.7c-17.9,0.5-29.9-10.8-30.5-28.7c-0.7-18.6,11.1-32.3,28.6-33.1
		c4.9-0.2,9.7,0.1,14.5,1.4c3.2,0.9,2.1,2.6,1.6,4.5c-0.5,1.8-0.9,3.1-3.5,2.1c-5.2-2-10.8-2.1-16.2-0.8
		c-11.6,2.8-18.3,13.9-16.6,27.3c2.1,16.5,14.9,24.4,32.2,19.4c3.4-1,3.9,0.3,4.5,2.9c0.5,2-0.3,2.7-1.9,3.2
		C206.1,187.2,201.9,187.6,197.7,187.7z"/>
	<path id="XMLID_19_" class="st0" d="M93.8,203c-0.8,3-1.7,5.9-2.5,8.9c-0.3,1-0.5,2-1.9,1.9c-1.2-0.1-1.2-1.1-1.4-1.9
		c-1-4-2-8-3-12c-0.2-0.7-1-1.7,0.5-2c1.3-0.2,1.4,0.8,1.6,1.6c0.8,3.1,1.5,6.2,3.1,9.3c0.8-3,1.7-6,2.5-9.1
		c0.2-0.9,0.4-1.7,1.5-1.8c1.4-0.1,1.5,1,1.7,1.9c0.7,3,1.5,6,2.9,9.2c0.8-3,1.6-6,2.5-9c0.3-0.9,0.3-2.7,2-2c1.5,0.6,0.2,1.8,0,2.6
		c-1,3.9-2.1,7.7-3.2,11.5c-0.2,0.8-0.5,1.7-1.7,1.7c-1.2,0-1.4-0.9-1.6-1.7c-0.8-3-1.5-6-2.2-9C94.4,203.1,94.1,203,93.8,203z"/>
	<path id="XMLID_18_" class="st0" d="M225.8,208.7c0-3,0-6,0-8.9c0-0.9,0-1.9,1.3-1.7c1.1,0.1,0.8,1.1,0.8,1.8c0,4,0,8,0,12
		c0,0.8,0.4,1.9-0.9,2.1c-1,0.2-1.6-0.5-2.1-1.3c-1-1.7-2.1-3.4-3.2-5.1c-1-1.6-2.1-3.3-3.8-4.8c0,3,0,6,0,9.1c0,0.8,0.1,2-1.1,1.9
		c-1.3,0-0.9-1.2-1-2c0-3.9,0-7.7,0-11.6c0-0.8-0.4-1.9,0.8-2.2c1.1-0.3,1.8,0.3,2.4,1.2c2,3.2,4.1,6.5,6.1,9.7
		C225.3,208.8,225.6,208.7,225.8,208.7z"/>
	<path id="XMLID_15_" class="st0" d="M132.2,205.8c-0.1,5-3.3,8.4-7.6,8.4c-4.2-0.1-7.2-3.5-7.1-8.4c0-4.9,3.3-8.5,7.6-8.4
		C129.3,197.6,132.3,201.1,132.2,205.8z M129.8,205.7c0-4-2.1-6.5-5.2-6.3c-3,0.1-4.9,2.8-4.8,6.7c0.1,3.7,2.1,6.1,5.1,6.1
		C127.9,212.2,129.9,209.7,129.8,205.7z"/>
	<path id="XMLID_12_" class="st0" d="M71,205.9c-0.1,4.9-3.4,8.5-7.7,8.3c-4.2-0.1-7.2-3.7-7.1-8.4c0.1-4.9,3.4-8.4,7.7-8.3
		C68,197.6,71.1,201.1,71,205.9z M63.6,212.3c3,0,5.1-2.8,5-6.6c-0.1-3.7-2.1-6.2-5-6.3c-3-0.1-5.2,2.6-5.2,6.4
		C58.4,209.6,60.6,212.3,63.6,212.3z"/>
	<path id="XMLID_9_" class="st0" d="M147.2,205.7c0-1.2-0.2-2.5,0.1-3.7c0.3-1.4-1.4-3.9,1.6-4.1c2.8-0.2,5.9-0.9,7.7,2.3
		c0.5,0.9,1,2.2,0.3,2.8c-2.8,2.8-0.8,5.5-0.1,8.3c0.2,0.8,1.2,2.1-0.4,2.4c-1.4,0.3-1.4-1.1-1.6-2c-0.2-0.8-0.4-1.7-0.7-2.5
		c-0.6-1.6-1.8-2.3-3.5-2.1c-2,0.2-1.1,1.8-1.3,2.9c-0.1,0.4,0.1,0.8,0,1.1c-0.2,0.9,0.7,2.7-1.1,2.6c-1.7,0-0.9-1.7-1-2.7
		C147.2,209.2,147.2,207.4,147.2,205.7z M149.3,202.9c-0.1,1.2-0.2,2.7,2.1,2.5c1.9-0.2,3.5-0.8,3.5-3c0.1-2.2-1.5-2.8-3.4-3
		C148.8,199.1,149.3,200.9,149.3,202.9z"/>
	<path id="XMLID_8_" class="st0" d="M250.6,205.6c2.1,0.1,4.6-1.5,5.4,1c0.6,2,1.3,4.9-0.6,6.7c-2.6,2.4-9.8,0.3-11.5-3.1
		c-1.6-3.3-1.5-6.5,0.8-9.5c1.9-2.5,6.4-3.8,9.6-2.7c0.6,0.2,1.3,0.3,1.1,1.1c-0.2,1.1-1.1,0.6-1.8,0.6c-5.5-0.3-8,1.4-8.4,5.6
		c-0.3,3.3,1.5,6.4,4.5,6.8c1.5,0.2,3.7,1.3,4.3-1.3c0.5-2,0.3-4.1-2.7-3.9C251.1,206.8,251,206.4,250.6,205.6z"/>
	<path id="XMLID_7_" class="st0" d="M183,197.8c-6,5.3-4.6,10.1-0.1,14.8c0.2,0.2,0.2,0.6,0.3,1c-1.4,0.7-2.2,0.1-2.8-1
		c-0.7-1.2-1.4-2.4-2.3-3.4c-0.7-0.9-0.9-2.8-2.5-2.2c-1.3,0.5-0.9,2.1-0.9,3.4c0,0.7,0,1.5,0,2.2c0,0.7-0.2,1.2-1,1.2
		c-0.8,0-1.1-0.5-1.1-1.2c0-4.5,0-9,0-13.5c0-0.7,0.3-1.2,1.1-1.2c0.8,0,1.1,0.5,1.1,1.2c0,1.7,0,3.4,0,5.4
		C177.9,202.9,178.4,198.1,183,197.8z"/>
	<path id="XMLID_6_" class="st0" d="M197.7,205.5c0-2.1,0-4.2,0-6.3c0-0.7,0.2-1.2,1-1.2c0.7,0,1.1,0.4,1.2,1.2c0,4.5,0,8.9,0,13.4
		c0,0.7-0.4,1.2-1.1,1.2c-1.1,0.1-1.1-0.8-1.1-1.5C197.7,210,197.7,207.7,197.7,205.5C197.7,205.5,197.7,205.5,197.7,205.5z"/>
	<path id="XMLID_5_" class="st0" d="M438.6,168.8c0-0.9-0.1-1.3,0-1.7c0.4-2.3-1.3-6.2,0.9-6.8c4.4-1.1,9.3-0.7,13.2,2.3
		c2.6,2,3,4.7,2.4,7.8c-0.3,1.7-1.2,3-2.5,4.1c-0.5,0.4-1,0.7-1.6,1c-3.7,2-8.2,2.5-11.6,1C436.9,175.4,439.2,171.1,438.6,168.8z"/>
	<path id="XMLID_4_" class="st0" d="M441.7,150.5c-2.5,0.6-3.5-0.8-3.2-3.9c0.2-2.5,0.2-5,0-7.5c-0.1-2,0.4-2.9,2.6-3.1
		c2.6-0.2,5.2-0.1,7.8,0.5c2.9,0.8,4.8,2.6,5.1,5.7c0.3,3.1-1.2,5.3-3.9,6.7C447.7,150.2,445,150.2,441.7,150.5z"/>
</g>
</svg>
